<svg width="365" height="85" viewBox="0 0 365 85" fill="none" xmlns="http://www.w3.org/2000/svg">
<g filter="url(#filter0_d)">
<path d="M100.368 49.272C100.368 49.7227 100.333 50.364 100.264 51.196H78.476C78.8573 53.2413 79.8453 54.8707 81.44 56.084C83.0693 57.2627 85.08 57.852 87.472 57.852C90.5227 57.852 93.036 56.8467 95.012 54.836L98.496 58.84C97.248 60.3307 95.6707 61.4573 93.764 62.22C91.8573 62.9827 89.708 63.364 87.316 63.364C84.2653 63.364 81.5787 62.7573 79.256 61.544C76.9333 60.3307 75.1307 58.6493 73.848 56.5C72.6 54.316 71.976 51.8547 71.976 49.116C71.976 46.412 72.5827 43.9853 73.796 41.836C75.044 39.652 76.76 37.9533 78.944 36.74C81.128 35.5267 83.5893 34.92 86.328 34.92C89.032 34.92 91.4413 35.5267 93.556 36.74C95.7053 37.9187 97.3693 39.6 98.548 41.784C99.7613 43.9333 100.368 46.4293 100.368 49.272ZM86.328 40.12C84.248 40.12 82.48 40.744 81.024 41.992C79.6027 43.2053 78.736 44.8347 78.424 46.88H94.18C93.9027 44.8693 93.0533 43.24 91.632 41.992C90.2107 40.744 88.4427 40.12 86.328 40.12ZM108.8 39.288C110.672 36.376 113.965 34.92 118.68 34.92V41.108C118.125 41.004 117.622 40.952 117.172 40.952C114.641 40.952 112.665 41.6973 111.244 43.188C109.822 44.644 109.112 46.7587 109.112 49.532V63H102.612V35.232H108.8V39.288ZM120.194 35.232H126.694V63H120.194V35.232ZM123.47 30.656C122.291 30.656 121.303 30.292 120.506 29.564C119.708 28.8013 119.31 27.8653 119.31 26.756C119.31 25.6467 119.708 24.728 120.506 24C121.303 23.2373 122.291 22.856 123.47 22.856C124.648 22.856 125.636 23.22 126.434 23.948C127.231 24.6413 127.63 25.5253 127.63 26.6C127.63 27.744 127.231 28.7147 126.434 29.512C125.671 30.2747 124.683 30.656 123.47 30.656ZM143.965 63.364C141.088 63.364 138.505 62.7573 136.217 61.544C133.929 60.3307 132.144 58.6493 130.861 56.5C129.578 54.316 128.937 51.8547 128.937 49.116C128.937 46.3773 129.578 43.9333 130.861 41.784C132.144 39.6347 133.912 37.9533 136.165 36.74C138.453 35.5267 141.053 34.92 143.965 34.92C146.704 34.92 149.096 35.4747 151.141 36.584C153.221 37.6933 154.781 39.288 155.821 41.368L150.829 44.28C150.032 42.9973 149.026 42.044 147.813 41.42C146.634 40.7613 145.334 40.432 143.913 40.432C141.486 40.432 139.476 41.2293 137.881 42.824C136.286 44.384 135.489 46.4813 135.489 49.116C135.489 51.7507 136.269 53.8653 137.829 55.46C139.424 57.02 141.452 57.8 143.913 57.8C145.334 57.8 146.634 57.488 147.813 56.864C149.026 56.2053 150.032 55.2347 150.829 53.952L155.821 56.864C154.746 58.944 153.169 60.556 151.089 61.7C149.044 62.8093 146.669 63.364 143.965 63.364ZM168.522 51.092L163.686 55.668V63H157.186V24.416H163.686V47.712L177.154 35.232H184.954L173.358 46.88L186.046 63H178.142L168.522 51.092ZM186.244 24.416H192.744V63H186.244V24.416ZM223.38 49.272C223.38 49.7227 223.345 50.364 223.276 51.196H201.488C201.869 53.2413 202.857 54.8707 204.452 56.084C206.081 57.2627 208.092 57.852 210.484 57.852C213.534 57.852 216.048 56.8467 218.024 54.836L221.508 58.84C220.26 60.3307 218.682 61.4573 216.776 62.22C214.869 62.9827 212.72 63.364 210.328 63.364C207.277 63.364 204.59 62.7573 202.268 61.544C199.945 60.3307 198.142 58.6493 196.86 56.5C195.612 54.316 194.988 51.8547 194.988 49.116C194.988 46.412 195.594 43.9853 196.808 41.836C198.056 39.652 199.772 37.9533 201.956 36.74C204.14 35.5267 206.601 34.92 209.34 34.92C212.044 34.92 214.453 35.5267 216.568 36.74C218.717 37.9187 220.381 39.6 221.56 41.784C222.773 43.9333 223.38 46.4293 223.38 49.272ZM209.34 40.12C207.26 40.12 205.492 40.744 204.036 41.992C202.614 43.2053 201.748 44.8347 201.436 46.88H217.192C216.914 44.8693 216.065 43.24 214.644 41.992C213.222 40.744 211.454 40.12 209.34 40.12ZM235.47 34.92C239.56 34.92 242.68 35.908 244.83 37.884C247.014 39.8253 248.106 42.772 248.106 46.724V63H241.97V59.62C241.172 60.8333 240.028 61.7693 238.538 62.428C237.082 63.052 235.314 63.364 233.234 63.364C231.154 63.364 229.334 63.0173 227.774 62.324C226.214 61.596 225 60.608 224.134 59.36C223.302 58.0773 222.886 56.6387 222.886 55.044C222.886 52.548 223.804 50.5547 225.642 49.064C227.514 47.5387 230.443 46.776 234.43 46.776H241.606V46.36C241.606 44.4187 241.016 42.928 239.838 41.888C238.694 40.848 236.978 40.328 234.69 40.328C233.13 40.328 231.587 40.5707 230.062 41.056C228.571 41.5413 227.306 42.2173 226.266 43.084L223.718 38.352C225.174 37.2427 226.924 36.3933 228.97 35.804C231.015 35.2147 233.182 34.92 235.47 34.92ZM234.586 58.632C236.215 58.632 237.654 58.268 238.902 57.54C240.184 56.7773 241.086 55.7027 241.606 54.316V51.092H234.898C231.154 51.092 229.282 52.3227 229.282 54.784C229.282 55.9627 229.75 56.8987 230.686 57.592C231.622 58.2853 232.922 58.632 234.586 58.632ZM265.182 63.364C262.374 63.364 259.843 62.7573 257.59 61.544C255.336 60.3307 253.568 58.6493 252.286 56.5C251.038 54.316 250.414 51.8547 250.414 49.116C250.414 46.3773 251.038 43.9333 252.286 41.784C253.568 39.6347 255.336 37.9533 257.59 36.74C259.843 35.5267 262.374 34.92 265.182 34.92C268.024 34.92 270.572 35.5267 272.826 36.74C275.079 37.9533 276.83 39.6347 278.078 41.784C279.36 43.9333 280.002 46.3773 280.002 49.116C280.002 51.8547 279.36 54.316 278.078 56.5C276.83 58.6493 275.079 60.3307 272.826 61.544C270.572 62.7573 268.024 63.364 265.182 63.364ZM265.182 57.8C267.574 57.8 269.55 57.0027 271.11 55.408C272.67 53.8133 273.45 51.716 273.45 49.116C273.45 46.516 272.67 44.4187 271.11 42.824C269.55 41.2293 267.574 40.432 265.182 40.432C262.79 40.432 260.814 41.2293 259.254 42.824C257.728 44.4187 256.966 46.516 256.966 49.116C256.966 51.716 257.728 53.8133 259.254 55.408C260.814 57.0027 262.79 57.8 265.182 57.8ZM297.609 34.92C300.313 34.92 302.722 35.5093 304.837 36.688C306.986 37.8667 308.668 39.5307 309.881 41.68C311.094 43.8293 311.701 46.308 311.701 49.116C311.701 51.924 311.094 54.42 309.881 56.604C308.668 58.7533 306.986 60.4173 304.837 61.596C302.722 62.7747 300.313 63.364 297.609 63.364C293.865 63.364 290.901 62.116 288.717 59.62V73.088H282.217V35.232H288.405V38.872C289.48 37.5547 290.797 36.5667 292.357 35.908C293.952 35.2493 295.702 34.92 297.609 34.92ZM296.881 57.8C299.273 57.8 301.232 57.0027 302.757 55.408C304.317 53.8133 305.097 51.716 305.097 49.116C305.097 46.516 304.317 44.4187 302.757 42.824C301.232 41.2293 299.273 40.432 296.881 40.432C295.321 40.432 293.917 40.796 292.669 41.524C291.421 42.2173 290.433 43.2227 289.705 44.54C288.977 45.8573 288.613 47.3827 288.613 49.116C288.613 50.8493 288.977 52.3747 289.705 53.692C290.433 55.0093 291.421 56.032 292.669 56.76C293.917 57.4533 295.321 57.8 296.881 57.8ZM348.914 34.92C352.415 34.92 355.188 35.9427 357.234 37.988C359.279 39.9987 360.302 43.032 360.302 47.088V63H353.802V47.92C353.802 45.4933 353.264 43.6733 352.19 42.46C351.115 41.212 349.572 40.588 347.562 40.588C345.378 40.588 343.627 41.316 342.31 42.772C340.992 44.1933 340.334 46.2387 340.334 48.908V63H333.834V47.92C333.834 45.4933 333.296 43.6733 332.222 42.46C331.147 41.212 329.604 40.588 327.594 40.588C325.375 40.588 323.607 41.2987 322.29 42.72C321.007 44.1413 320.366 46.204 320.366 48.908V63H313.866V35.232H320.054V38.768C321.094 37.52 322.394 36.5667 323.954 35.908C325.514 35.2493 327.247 34.92 329.154 34.92C331.234 34.92 333.071 35.3187 334.666 36.116C336.295 36.8787 337.578 38.0227 338.514 39.548C339.658 38.092 341.131 36.9653 342.934 36.168C344.736 35.336 346.73 34.92 348.914 34.92Z" fill="#2CAEBA"/>
</g>
<g filter="url(#filter1_d)">
<path d="M36.125 16.72C42.1483 16.72 47.5 17.955 52.18 20.425C56.9033 22.895 60.565 26.275 63.165 30.565C65.8083 34.855 67.13 39.6433 67.13 44.93C67.13 48.83 66.5017 52.1883 65.245 55.005C64.0317 57.7783 62.3417 59.9017 60.175 61.375C58.0517 62.805 55.6033 63.52 52.83 63.52C50.5333 63.52 48.5617 63.0433 46.915 62.09C45.2683 61.1367 44.055 59.7283 43.275 57.865C41.1517 61.635 37.6417 63.52 32.745 63.52C30.1883 63.52 27.805 62.8483 25.595 61.505C23.385 60.1183 21.6083 58.19 20.265 55.72C18.965 53.25 18.315 50.4117 18.315 47.205C18.315 43.9983 18.965 41.16 20.265 38.69C21.565 36.22 23.32 34.3133 25.53 32.97C27.74 31.6267 30.145 30.955 32.745 30.955C36.5583 30.955 39.57 32.19 41.78 34.66V31.475H52.375V51.3C52.375 52.6867 52.635 53.6833 53.155 54.29C53.675 54.8967 54.3683 55.2 55.235 55.2C57.965 55.2 59.33 51.8417 59.33 45.125C59.33 41.0083 58.355 37.3467 56.405 34.14C54.4983 30.9333 51.79 28.4417 48.28 26.665C44.77 24.845 40.7183 23.935 36.125 23.935C31.575 23.935 27.5233 24.91 23.97 26.86C20.46 28.81 17.73 31.5183 15.78 34.985C13.83 38.4083 12.855 42.265 12.855 46.555C12.855 50.9317 13.8083 54.8533 15.715 58.32C17.6217 61.7867 20.3083 64.4733 23.775 66.38C27.285 68.33 31.315 69.305 35.865 69.305C40.5017 69.305 44.8133 68.3517 48.8 66.445L51.205 73.4C49.255 74.3533 46.8933 75.1117 44.12 75.675C41.39 76.2383 38.6383 76.52 35.865 76.52C29.5817 76.52 24.035 75.22 19.225 72.62C14.4583 70.02 10.7533 66.445 8.11 61.895C5.51 57.345 4.21 52.2317 4.21 46.555C4.21 40.9217 5.53167 35.8517 8.175 31.345C10.8183 26.795 14.545 23.22 19.355 20.62C24.2083 18.02 29.7983 16.72 36.125 16.72ZM35.54 54.68C37.4467 54.68 38.985 54.03 40.155 52.73C41.3683 51.43 41.975 49.5883 41.975 47.205C41.975 44.865 41.3683 43.045 40.155 41.745C38.985 40.445 37.4467 39.795 35.54 39.795C33.6333 39.795 32.095 40.445 30.925 41.745C29.755 43.045 29.17 44.865 29.17 47.205C29.17 49.545 29.755 51.3867 30.925 52.73C32.095 54.03 33.6333 54.68 35.54 54.68Z" fill="#102A42"/>
</g>
<defs>
<filter id="filter0_d" x="68.976" y="22.856" width="294.326" height="57.232" filterUnits="userSpaceOnUse" color-interpolation-filters="sRGB">
<feFlood flood-opacity="0" result="BackgroundImageFix"/>
<feColorMatrix in="SourceAlpha" type="matrix" values="0 0 0 0 0 0 0 0 0 0 0 0 0 0 0 0 0 0 127 0"/>
<feOffset dy="4"/>
<feGaussianBlur stdDeviation="1.5"/>
<feColorMatrix type="matrix" values="0 0 0 0 0 0 0 0 0 0 0 0 0 0 0 0 0 0 0.25 0"/>
<feBlend mode="normal" in2="BackgroundImageFix" result="effect1_dropShadow"/>
<feBlend mode="normal" in="SourceGraphic" in2="effect1_dropShadow" result="shape"/>
</filter>
<filter id="filter1_d" x="0.210007" y="16.72" width="70.92" height="67.8" filterUnits="userSpaceOnUse" color-interpolation-filters="sRGB">
<feFlood flood-opacity="0" result="BackgroundImageFix"/>
<feColorMatrix in="SourceAlpha" type="matrix" values="0 0 0 0 0 0 0 0 0 0 0 0 0 0 0 0 0 0 127 0"/>
<feOffset dy="4"/>
<feGaussianBlur stdDeviation="2"/>
<feColorMatrix type="matrix" values="0 0 0 0 0 0 0 0 0 0 0 0 0 0 0 0 0 0 0.25 0"/>
<feBlend mode="normal" in2="BackgroundImageFix" result="effect1_dropShadow"/>
<feBlend mode="normal" in="SourceGraphic" in2="effect1_dropShadow" result="shape"/>
</filter>
</defs>
</svg>
